<svg width="16" height="16" viewBox="0 0 16 16" fill="none" xmlns="http://www.w3.org/2000/svg">
<path d="M8 0.5C6.7458 0.501283 5.51195 0.817073 4.41134 1.41848C3.31074 2.01988 2.37853 2.88769 1.7 3.9425C0.745677 5.43917 0.353112 7.2258 0.592121 8.98467C0.83113 10.7435 1.68622 12.3606 3.00532 13.5484C4.32443 14.7361 6.02204 15.4175 7.79625 15.4713C9.57047 15.5252 11.3063 14.948 12.695 13.8425C13.9037 12.8696 14.7809 11.5459 15.2057 10.0536C15.6305 8.56137 15.5821 6.97409 15.0671 5.5105C14.5521 4.04692 13.5958 2.77908 12.3301 1.88171C11.0644 0.984332 9.55155 0.501588 8 0.5ZM9.5 2.195C10.5364 2.46327 11.4821 3.00393 12.2391 3.76092C12.9961 4.5179 13.5367 5.46362 13.805 6.5C12.551 6.53532 11.327 6.89167 10.25 7.535C9.70919 6.92149 9.10594 6.36599 8.45 5.8775C9.11086 4.76072 9.4725 3.49237 9.5 2.195ZM8 2C7.99754 3.07627 7.70196 4.13154 7.145 5.0525C7.0325 4.9925 6.9275 4.925 6.815 4.8725C5.84928 4.36294 4.81665 3.9918 3.7475 3.77C4.30479 3.20939 4.96735 2.76443 5.69714 2.46067C6.42692 2.15692 7.20953 2.00036 8 2ZM2.75 5.12C3.92632 5.28341 5.06556 5.64878 6.1175 6.2L6.215 6.26C5.66144 6.81305 5.00418 7.25142 4.28089 7.55001C3.5576 7.84859 2.7825 8.00151 2 8C2.00417 6.99225 2.26211 6.00178 2.75 5.12ZM6.5 13.805C5.46363 13.5367 4.5179 12.9961 3.76092 12.2391C3.00394 11.4821 2.46327 10.5364 2.195 9.5C3.19674 9.47776 4.18362 9.25299 5.09619 8.83924C6.00876 8.42549 6.82815 7.83132 7.505 7.0925C8.04719 7.4933 8.54951 7.94538 9.005 8.4425C8.24553 9.11967 7.6318 9.9443 7.20115 10.8662C6.7705 11.7881 6.53194 12.788 6.5 13.805ZM8 14C8.00162 13.176 8.17293 12.3612 8.50326 11.6064C8.83359 10.8515 9.31586 10.1728 9.92 9.6125C9.965 9.6725 10.01 9.725 10.0475 9.785C10.676 10.7474 11.1422 11.8065 11.4275 12.92C10.4237 13.6248 9.22653 14.002 8 14ZM12.6575 11.75C12.3318 10.7578 11.878 9.81226 11.3075 8.9375L11.15 8.75C12.022 8.26487 13.0021 8.00695 14 8C13.9926 9.3664 13.519 10.6893 12.6575 11.75Z" fill="#77767B"/>
</svg>
