<svg width="14" height="14" viewBox="0 0 14 14" fill="none" xmlns="http://www.w3.org/2000/svg">
<path d="M11.2426 10.6365H11.8486C11.8486 10.3018 11.5773 10.0305 11.2426 10.0305V10.6365ZM3.06077 4.27289V4.87895C3.3955 4.87895 3.66683 4.60762 3.66683 4.27289H3.06077ZM3.59331 1.47209L4.02186 1.90065V1.90064L3.59331 1.47209ZM12.5282 1.47209L12.0997 1.90064V1.90065L12.5282 1.47209ZM0.939557 4.27289V3.66683C0.604839 3.66683 0.333496 3.93816 0.333496 4.27289H0.939557ZM3.66683 3.96986C3.66683 3.63513 3.3955 3.3638 3.06077 3.3638C2.72605 3.3638 2.45471 3.63513 2.45471 3.96986H3.66683ZM2.45471 6.3941C2.45471 6.72883 2.72605 7.00016 3.06077 7.00016C3.3955 7.00016 3.66683 6.72883 3.66683 6.3941H2.45471ZM10.6365 10.6365V12.4547H11.8486V10.6365H10.6365ZM10.6365 12.4547L11.4936 13.3118C11.721 13.0845 11.8486 12.7762 11.8486 12.4547H10.6365ZM10.6365 12.4547V13.6668C10.958 13.6668 11.2663 13.5391 11.4936 13.3118L10.6365 12.4547ZM10.6365 12.4547H4.87895V13.6668H10.6365V12.4547ZM4.87895 12.4547L4.02186 13.3118C4.24919 13.5391 4.5575 13.6668 4.87895 13.6668V12.4547ZM4.87895 12.4547H3.66683C3.66683 12.7762 3.79453 13.0845 4.02186 13.3118L4.87895 12.4547ZM4.87895 12.4547V10.6365H3.66683V12.4547H4.87895ZM4.27289 11.2426H11.2426V10.0305H4.27289V11.2426ZM3.66683 4.27289V2.75774H2.45471V4.27289H3.66683ZM3.66683 2.75774C3.66683 2.43626 3.79453 2.12796 4.02186 1.90065L3.16478 1.04353C2.7101 1.49817 2.45471 2.1148 2.45471 2.75774H3.66683ZM4.02186 1.90064C4.24919 1.67332 4.55747 1.54562 4.87895 1.54562V0.333496C4.23601 0.333496 3.61938 0.588907 3.16476 1.04354L4.02186 1.90064ZM4.87895 1.54562H11.2426V0.333496H4.87895V1.54562ZM11.2426 1.54562C11.5641 1.54562 11.8723 1.67332 12.0997 1.90064L12.9568 1.04354C12.5022 0.588908 11.8855 0.333496 11.2426 0.333496V1.54562ZM12.0997 1.90065C12.327 2.12796 12.4547 2.43626 12.4547 2.75774H13.6668C13.6668 2.1148 13.4114 1.49817 12.9568 1.04353L12.0997 1.90065ZM12.4547 2.75774V8.81834H13.6668V2.75774H12.4547ZM12.4547 8.81834C12.4547 9.48865 11.9131 10.0305 11.2444 10.0305V11.2426C12.5842 11.2426 13.6668 10.1565 13.6668 8.81834H12.4547ZM11.2444 10.0305H4.27289V11.2426H11.2444V10.0305ZM4.27289 10.0305C3.46871 10.0305 2.79894 9.57574 2.30394 8.88274C1.80334 8.18192 1.54562 7.31871 1.54562 6.69713H0.333496C0.333496 7.59071 0.681832 8.69719 1.3176 9.58728C1.95896 10.4852 2.95585 11.2426 4.27289 11.2426V10.0305ZM1.54562 6.69713V4.27289H0.333496V6.69713H1.54562ZM0.939557 4.87895H3.06077V3.66683H0.939557V4.87895ZM2.45471 3.96986V6.3941H3.66683V3.96986H2.45471Z" fill="#77767B"/>
</svg>
