<svg width="18" height="18" viewBox="0 0 18 18" fill="none" xmlns="http://www.w3.org/2000/svg">
<path d="M14.3032 3.69674C13.609 2.99703 12.7829 2.44199 11.8727 2.06375C10.9626 1.68552 9.98637 1.4916 9.00073 1.49324C8.01487 1.49169 7.0385 1.68564 6.12808 2.06387C5.21766 2.44209 4.39128 2.99708 3.69673 3.69674C0.772478 6.62024 0.772478 11.379 3.69673 14.3032C4.39129 15.0031 5.21778 15.5582 6.12835 15.9364C7.03892 16.3147 8.01548 16.5085 9.00148 16.5067C9.98707 16.5085 10.9632 16.3147 11.8734 15.9366C12.7836 15.5585 13.6097 15.0036 14.304 14.304C17.2282 11.3805 17.2282 6.62174 14.3032 3.69674ZM9.13573 2.99999H8.86648C8.91223 2.99924 8.95573 2.99324 9.00148 2.99324C9.04723 2.99324 9.08998 2.99924 9.13573 2.99999ZM13.6822 12.75H12L11.0565 14.637C10.3983 14.8801 9.70239 15.0053 9.00073 15.0067C8.29777 15.0055 7.60056 14.88 6.94123 14.6362L5.99998 12.7575H4.32373C3.7053 11.9886 3.28709 11.0785 3.10648 10.1085L4.49998 8.24998L3.58798 6.42524C3.87898 5.80618 4.27452 5.24192 4.75723 4.75724C5.43282 4.07928 6.26089 3.57292 7.17223 3.28049L8.99998 4.49999L10.8285 3.28124C11.7395 3.57388 12.5675 4.07992 13.2435 4.75724C13.7257 5.24134 14.1209 5.80481 14.412 6.42299L13.5 8.24998L14.8935 10.1085C14.7137 11.0754 14.2976 11.9828 13.6822 12.75Z" fill="#77767B"/>
<path d="M6.375 8.25L7.5 11.25H10.5L11.625 8.25L9 6.375L6.375 8.25Z" fill="#77767B"/>
</svg>
