<svg width="16" height="16" viewBox="0 0 16 16" fill="none" xmlns="http://www.w3.org/2000/svg">
<path d="M12.1177 4.15326C12.1415 4.00607 12.1059 3.85546 12.0187 3.73451C11.9315 3.61357 11.7999 3.53219 11.6527 3.50826C11.3392 3.45651 11.0602 3.68301 11.0039 3.98676C10.9804 4.10193 10.9529 4.21625 10.9214 4.32951C10.8554 4.57176 10.7437 4.92201 10.5644 5.34201C10.0791 6.46669 9.3837 7.48846 8.51544 8.35251C7.34034 9.51803 5.90824 10.3917 4.3342 10.9033C4.21105 10.9421 4.08674 10.9771 3.96144 11.0083L3.94495 11.0128H3.9427C3.8705 11.0284 3.80209 11.0581 3.74138 11.1002C3.68068 11.1423 3.62885 11.196 3.58888 11.2581C3.5489 11.3202 3.52155 11.3896 3.5084 11.4623C3.49524 11.535 3.49653 11.6096 3.5122 11.6818C3.6187 12.176 4.18045 12.113 4.18045 12.113L4.18269 12.1123H4.1857L4.19395 12.11L4.22169 12.1025C4.37297 12.0647 4.52305 12.0221 4.67169 11.975C6.4183 11.409 8.00732 10.4402 9.31044 9.14676C10.2799 8.18146 11.0563 7.04006 11.5979 5.78376C11.8004 5.31276 11.9279 4.91376 12.0067 4.62801C12.0461 4.48502 12.0803 4.34068 12.1094 4.19526L12.1147 4.16751L12.1162 4.15851V4.15476L12.1177 4.15326ZM0.763445 8.42976C0.250445 9.85401 0.182195 11.3353 1.09195 12.2548L1.26744 12.4325C2.0206 13.1951 2.77635 13.9551 3.5347 14.7125C4.4947 15.6725 6.01344 15.6875 7.50144 15.2075C9.02094 14.7163 10.6889 13.661 12.1709 12.179C13.6529 10.6978 14.7074 9.02901 15.1987 7.50951C15.6787 6.02151 15.6637 4.50351 14.7037 3.54351C13.9787 2.81747 13.2557 2.08947 12.5347 1.35951L12.2632 1.08426L12.2617 1.08576C11.3429 0.175259 9.86094 0.243509 8.4367 0.755759C6.96294 1.28751 5.32494 2.36376 3.84745 3.84126C2.36995 5.31876 1.29445 6.95601 0.763445 8.42976ZM1.82094 8.81151C2.28519 7.52526 3.25645 6.02376 4.6432 4.63626C6.0307 3.24876 7.5322 2.27826 8.81769 1.81476C10.1504 1.33476 11.0452 1.46001 11.4727 1.88901L11.4749 1.88751L11.7359 2.15076L12.3929 2.81451C12.9067 3.33201 13.5179 3.94851 13.9079 4.33851C14.4142 4.84476 14.5642 5.81376 14.1277 7.16376C13.7024 8.48151 12.7582 10.001 11.3752 11.384C9.99294 12.7663 8.47269 13.7105 7.15569 14.1365C5.80569 14.5723 4.83595 14.4223 4.33045 13.9168C3.574 13.1602 2.8195 12.4017 2.06695 11.6413L1.89444 11.4673L1.89595 11.4665C1.46694 11.0375 1.34094 10.1435 1.82094 8.81151Z" fill="#77767B"/>
</svg>
