<svg width="18" height="18" viewBox="0 0 18 18" fill="none" xmlns="http://www.w3.org/2000/svg">
<g clip-path="url(#clip0_1844_10615)">
<path d="M15.4819 0C14.5058 0 13.7139 0.755859 13.7139 1.6875C13.7139 2.61914 14.5058 3.375 15.4819 3.375C16.4581 3.375 17.25 2.61914 17.25 1.6875C17.25 0.755859 16.4581 0 15.4819 0ZM15.4819 15.75C15.1578 15.75 14.8926 16.0031 14.8926 16.3125C14.8926 16.6219 14.6274 16.875 14.3032 16.875H10.7671C10.443 16.875 10.1778 17.1281 10.1778 17.4375C10.1778 17.7469 10.443 18 10.7671 18H14.3032C15.2794 18 16.0713 17.2441 16.0713 16.3125C16.0713 16.0031 15.8061 15.75 15.4819 15.75ZM5.08726 16.0523C4.85888 16.2703 4.48317 16.2738 4.2548 16.0523L1.75374 13.6652C1.52537 13.4473 1.14965 13.4473 0.92128 13.6652C0.692907 13.8832 0.692907 14.2418 0.92128 14.4598L3.42234 16.8469C3.76858 17.1773 4.22165 17.3391 4.67471 17.3391C5.12778 17.3391 5.58084 17.1738 5.9234 16.8469C6.15177 16.6289 6.15177 16.2703 5.9234 16.0523C5.69503 15.8344 5.31932 15.8309 5.08726 16.0523ZM7.15367 9.73125L3.70228 13.0254C3.24185 13.4648 3.24185 14.1785 3.70228 14.6145C3.93066 14.8324 4.2327 14.9449 4.53474 14.9449C4.83678 14.9449 5.13883 14.8359 5.3672 14.6145L8.75229 11.3836L7.63989 10.3219C7.45571 10.1461 7.29364 9.9457 7.15367 9.73125ZM5.46297 5.625H9.34901L8.60863 6.22969C8.11137 6.63398 7.81301 7.22813 7.78723 7.85039C7.76144 8.47617 8.01192 9.08789 8.47603 9.52734L11.3565 12.2766V15.1875C11.3565 15.8098 11.8832 16.3125 12.5352 16.3125C13.1872 16.3125 13.7139 15.8098 13.7139 15.1875V12.0445C13.7139 11.6016 13.526 11.1656 13.1945 10.8527L10.9476 8.7082C10.966 8.69414 10.9918 8.68711 11.0102 8.66953L14.0417 5.77617C14.4653 5.37188 14.5906 4.7707 14.3622 4.24336C14.1338 3.71602 13.5997 3.375 12.9993 3.375H5.46297C4.811 3.375 4.28427 3.87773 4.28427 4.5C4.28427 5.12227 4.811 5.625 5.46297 5.625Z" fill="#77767B"/>
</g>
<defs>
<clipPath id="clip0_1844_10615">
<rect width="18" height="18" fill="white"/>
</clipPath>
</defs>
</svg>
