<svg width="18" height="18" viewBox="0 0 18 18" fill="none" xmlns="http://www.w3.org/2000/svg">
<path d="M7.85062 4.83399C7.9541 4.78597 8.0697 4.77044 8.18218 4.78945C8.29467 4.80846 8.39874 4.86112 8.48069 4.94048L9.63674 6.17696L6.04887 9.34253C6.38475 9.40933 6.62219 9.51975 6.82694 9.61527C7.10046 9.74293 7.3165 9.84379 7.79434 9.84379C8.27218 9.84379 8.48825 9.74296 8.7618 9.61527L8.76722 9.61274C9.29563 9.36642 9.78598 9.04557 10.2233 8.66001L11.1742 7.82097L13.034 9.80986C13.2512 9.76989 13.4052 9.69842 13.5832 9.61538C13.774 9.52098 13.9729 9.4441 14.1776 9.3857L9.29484 4.16405L9.28173 4.15051C9.03638 3.90625 8.72204 3.74309 8.38108 3.68302C8.04012 3.62296 7.68894 3.66888 7.37489 3.8146L5.10583 4.8735L5.58157 5.89303L7.85062 4.83399Z" fill="#77767B"/>
<path d="M13.0781 5.90625C13.7771 5.90625 14.3438 5.33961 14.3438 4.64062C14.3438 3.94164 13.7771 3.375 13.0781 3.375C12.3791 3.375 11.8125 3.94164 11.8125 4.64062C11.8125 5.33961 12.3791 5.90625 13.0781 5.90625Z" fill="#77767B"/>
<path d="M15.0267 13.2188C14.2992 13.2188 13.9023 13.404 13.5834 13.5527C13.3098 13.6804 13.0937 13.7813 12.6158 13.7813C12.1378 13.7813 11.9218 13.6804 11.6483 13.5527C11.3294 13.404 10.9325 13.2188 10.2051 13.2188C9.47756 13.2188 9.08072 13.404 8.76185 13.5527C8.4883 13.6804 8.27227 13.7813 7.79439 13.7813C7.31651 13.7813 7.10051 13.6804 6.82699 13.5527C6.50813 13.404 6.11128 13.2188 5.38383 13.2188C4.65637 13.2188 4.2595 13.404 3.94063 13.5527C3.66708 13.6804 3.45104 13.7813 2.97316 13.7813C2.49529 13.7813 2.27925 13.6804 2.0057 13.5527C1.68683 13.404 1.28995 13.2188 0.5625 13.2188V14.3438C1.04038 14.3438 1.25641 14.4446 1.52996 14.5723C1.84883 14.7211 2.24571 14.9063 2.97316 14.9063C3.70062 14.9063 4.0975 14.721 4.41636 14.5723C4.68991 14.4446 4.90595 14.3438 5.38383 14.3438C5.86171 14.3438 6.07771 14.4446 6.35122 14.5723C6.67009 14.7211 7.06693 14.9063 7.79439 14.9063C8.52184 14.9063 8.91872 14.721 9.23759 14.5723C9.51114 14.4446 9.72721 14.3438 10.2051 14.3438C10.6829 14.3438 10.899 14.4446 11.1726 14.5723C11.4915 14.7211 11.8883 14.9063 12.6158 14.9063C13.3433 14.9063 13.7402 14.7211 14.0591 14.5723C14.3326 14.4446 14.5487 14.3438 15.0267 14.3438C15.5046 14.3438 15.7207 14.4446 15.9942 14.5723C16.3131 14.7211 16.71 14.9063 17.4375 14.9063V13.7813C16.9596 13.7813 16.7435 13.6804 16.47 13.5527C16.151 13.404 15.7541 13.2188 15.0267 13.2188ZM17.3426 10.9672C16.9298 10.9546 16.7247 10.8591 16.47 10.7403C16.1653 10.5981 15.7888 10.4232 15.1217 10.4078C15.0904 10.4071 15.0592 10.4063 15.0267 10.4063C14.9942 10.4063 14.963 10.4071 14.9318 10.4078C14.2646 10.4232 13.8881 10.5981 13.5835 10.7403C13.3288 10.8591 13.1237 10.9547 12.7108 10.9672C12.6803 10.9682 12.6488 10.9688 12.6159 10.9688C12.583 10.9688 12.5515 10.9682 12.521 10.9672C12.1082 10.9546 11.9031 10.8591 11.6485 10.7403C11.3438 10.5981 10.9673 10.4232 10.3002 10.4078C10.2689 10.4071 10.2378 10.4063 10.2053 10.4063C10.1727 10.4063 10.1416 10.4071 10.1103 10.4078C9.44322 10.4232 9.06666 10.5981 8.76206 10.7403C8.50739 10.8591 8.30229 10.9547 7.88955 10.9672C7.859 10.9682 7.82754 10.9688 7.79463 10.9688C7.76173 10.9688 7.73026 10.9682 7.69971 10.9672C7.28701 10.9546 7.08191 10.8591 6.82727 10.7403C6.52268 10.5981 6.14616 10.4232 5.47907 10.4078C5.45622 10.4071 5.43337 10.4068 5.41051 10.4066C5.40155 10.4066 5.39293 10.4062 5.38404 10.4062C5.35148 10.4062 5.32034 10.407 5.28912 10.4077C4.62203 10.4231 4.24547 10.5981 3.94088 10.7402C3.68617 10.8591 3.4811 10.9547 3.06837 10.9672C3.03782 10.9681 3.00635 10.9687 2.97345 10.9687C2.94054 10.9687 2.90907 10.9681 2.87852 10.9672C2.46551 10.9547 2.26055 10.8591 2.0057 10.7402C1.70111 10.5981 1.32458 10.4231 0.657457 10.4077C0.626203 10.407 0.595055 10.4062 0.562535 10.4062V11.5312C1.04041 11.5312 1.25645 11.6321 1.53 11.7597C1.84887 11.9085 2.24575 12.0937 2.9732 12.0937C3.70065 12.0937 4.09753 11.9085 4.4164 11.7597C4.68995 11.6321 4.90598 11.5312 5.38386 11.5312C5.86174 11.5312 6.07774 11.6321 6.35126 11.7597C6.67013 11.9085 7.06697 12.0937 7.79442 12.0937C8.52187 12.0937 8.91875 11.9085 9.23762 11.7597C9.51117 11.6321 9.72724 11.5312 10.2051 11.5312C10.6829 11.5312 10.899 11.6321 11.1726 11.7597C11.4915 11.9085 11.8883 12.0937 12.6158 12.0937C13.3433 12.0937 13.7402 11.9085 14.0591 11.7597C14.3327 11.6321 14.5488 11.5312 15.0267 11.5312C15.5046 11.5312 15.7207 11.6321 15.9942 11.7597C16.3132 11.9086 16.71 12.0937 17.4375 12.0937V10.9688C17.4046 10.9688 17.3731 10.9682 17.3426 10.9672Z" fill="#77767B"/>
</svg>
