<svg width="16" height="16" viewBox="0 0 16 16" fill="none" xmlns="http://www.w3.org/2000/svg">
<path d="M8 0.5C3.86 0.5 0.5 3.86 0.5 8C0.5 12.14 3.86 15.5 8 15.5C12.14 15.5 15.5 12.14 15.5 8C15.5 3.86 12.14 0.5 8 0.5ZM8.75 2.0525C11.0525 2.3375 12.9275 3.9425 13.655 6.0725L8.75 3.2375V2.0525ZM5 2.81C5.885 2.2925 7.4975 2.015 7.25 2.045V7.5575L5 8.855V2.81ZM2.4725 10.325C2.1725 9.605 2 8.825 2 8C2 6.485 2.57 5.105 3.5 4.0475V9.7325L2.4725 10.325ZM3.23 11.6225L8 8.8625L10.25 10.16L5.015 13.1825C4.3197 12.7899 3.71221 12.259 3.23 11.6225ZM8 14C7.595 14 7.1975 13.955 6.815 13.88L11.75 11.03L12.77 11.615C11.675 13.0625 9.95 14 8 14ZM8.75 7.565V4.97L14 8.0075C14 8.8325 13.8275 9.6125 13.5275 10.325L8.75 7.565Z" fill="#77767B"/>
</svg>
